<?xml version="1.0" encoding="utf-8"?>
<!-- Generator: Adobe Illustrator 22.1.0, SVG Export Plug-In . SVG Version: 6.00 Build 0)  -->
<svg version="1.1" id="Warstwa_1" xmlns="http://www.w3.org/2000/svg" xmlns:xlink="http://www.w3.org/1999/xlink" x="0px" y="0px"
	 viewBox="0 0 250 250" style="enable-background:new 0 0 250 250;" xml:space="preserve">
<style type="text/css">
	.st0{fill:#B4392E;}
	.st1{fill:#FFFFFF;}
</style>
<rect x="0" y="0" class="st0" width="250" height="250"/>
<g>
	<g>
		<path class="st1" d="M61.3,169.8c-1.9-1.2-4.8-0.5-6,1.4c-1.2,1.9-0.5,4.8,1.4,6c5.1,3.2,8.7,6.3,13.2,8.8c1.7,0.9,4.1,0.5,5.3-1
			l21.5-25.8c1.2-1.3,1.4-3.3,0.6-4.9s-2.6-2.5-4.4-2.3c-1.1,0.1-2.1,0.7-2.8,1.6l-19.1,22.9C68.3,174.6,65.7,172.6,61.3,169.8z"/>
		<path class="st1" d="M84.2,192.9h-7.5c0,0,0,0,0,0H46v-30.2h21.5c2.3,0,4.4-2,4.4-4.3s-2.1-4.3-4.4-4.3H43.9
			c-1.8,0-4.3,0.7-5.5,2.6c-1.2,1.9-0.9,3.4-0.9,3.8c0,11.5,0,23,0,34.5c0,1.3,0.4,2.8,0.9,3.6c0.8,1.2,1.9,2,2.9,2.4
			c0.8,0.3,1.4,0.4,2.2,0.5c12.1,0,24.5,0,34.9,0c0,0,0,0,0.1,0c1,0,2.7,0.2,4.6-1.4c1.9-1.7,1.9-3.8,1.9-5.2
			C84.8,194.2,84.6,193.5,84.2,192.9z"/>
	</g>
	<path class="st1" d="M61.2,62.3c-1.9-1.2-4.8-0.5-6,1.4c-1.2,1.9-0.5,4.8,1.4,6c5.1,3.2,8.7,6.3,13.2,8.8c1.7,0.9,4.1,0.5,5.3-1
		l21.5-25.8c1.2-1.3,1.4-3.3,0.6-4.9s-2.6-2.5-4.4-2.3c-1.1,0.1-2.1,0.7-2.8,1.6L71.1,68.9C68.3,67.1,65.7,65.1,61.2,62.3z"/>
	<path class="st1" d="M84.2,85.4h-7.5c0,0,0,0,0,0H46V55.3h21.5c2.3,0,4.4-2,4.4-4.3s-2.1-4.3-4.4-4.3H43.9c-1.8,0-4.3,0.7-5.5,2.6
		c-1.2,1.9-0.9,3.4-0.9,3.8c0,11.5,0,23,0,34.5c0,1.3,0.4,2.8,0.9,3.6c0.8,1.2,1.9,2,2.9,2.4c0.8,0.3,1.4,0.4,2.2,0.5
		c12.1,0,24.5,0,34.9,0c0,0,0,0,0.1,0c1,0,2.7,0.2,4.6-1.4c1.9-1.7,1.9-3.8,1.9-5.2C84.8,86.7,84.6,86,84.2,85.4z"/>
	<path class="st1" d="M84.7,104.7c-0.2-0.9-0.7-2.3-2-3.2c-1.2-0.9-2.4-1-3-1c-0.6,0-1,0-1.3,0H44c-1.6,0-4.1,0.7-5.4,2.6
		c-1.3,1.9-1.2,3.5-1.2,5v33.4c0,0.7,0,1.3,0.1,2.2c0.2,0.9,0.7,2.3,2,3.2c1.2,0.9,2.4,1,3,1c0.6,0,1,0.1,1.3,0.1h34.5
		c0.4,0,0.7,0,1.3-0.1c0.6,0,1.8-0.1,3-1c1.2-0.9,1.8-2.4,2-3.2c0.2-0.9,0.1-1.4,0.1-2.2v-34.5C84.8,106.2,84.8,105.6,84.7,104.7z
		 M76.2,139.3H46v-30.2h30.2V139.3z"/>
	<path class="st1" d="M208.3,117.7c-15.2,0-91.5,0-106.7,0c-2.3,0.1-4.2,2.3-4.1,4.5s2.3,4.2,4.5,4.1h106.3c2.3,0,4.4-2,4.4-4.3
		C212.7,119.8,210.6,117.7,208.3,117.7z"/>
	<path class="st1" d="M208.3,171.6c-15.2,0-91.5,0-106.7,0c-2.3,0.1-4.2,2.3-4.1,4.5c0.1,2.3,2.3,4.2,4.5,4.1h106.3
		c2.3,0,4.4-2,4.4-4.3C212.7,173.6,210.6,171.5,208.3,171.6z"/>
	<path class="st1" d="M102,72.5c15.1,0.1,92.7-0.2,106.3,0c2.2-0.1,4-0.7,4.3-4.3c-0.2-2.9-1.9-4.2-4.3-4.4
		c-15,0.2-92.3,0.1-106.3,0.1c-2.3,0-4.3,2-4.3,4.3C97.7,70.5,99.7,72.5,102,72.5z"/>
</g>
</svg>
